<?xml version="1.0" encoding="utf-8"?>
<!-- Generator: Adobe Illustrator 26.5.1, SVG Export Plug-In . SVG Version: 6.00 Build 0)  -->
<svg version="1.1" id="Camada_1" xmlns="http://www.w3.org/2000/svg" xmlns:xlink="http://www.w3.org/1999/xlink" x="0px" y="0px"
	 viewBox="0 0 111.7 111.67" style="enable-background:new 0 0 111.7 111.67;" xml:space="preserve">
<g>
	<path d="M0.14,108.7c1.49-3.07,2.68-6.26,3.98-9.4c13.46-32.49,26.9-64.98,40.34-97.47c0.64-1.54,1.08-1.89,2.69-1.82
		c8.4,0.38,16.8,0.76,24.83,3.69c16.16,5.9,27.83,16.65,34.85,32.37c3.21,7.2,4.79,14.78,4.87,22.68c0.01,1.48-0.51,2.32-1.85,2.93
		c-6.96,3.16-13.89,6.42-20.85,9.58c-1.07,0.49-1.43,1.11-1.38,2.24c0.06,1.59,0.08,3.19-0.07,4.78c-0.33,3.53-2.73,5.68-6.27,5.42
		c-1.03-0.08-1.19,0.21-1.18,1.13c0.04,3.15-1.3,5.25-3.77,6.07c-3.86,1.29-7.44-1.4-7.63-5.74c-0.05-1.09-0.05-2.18-0.01-3.26
		c0.03-0.89-0.25-0.97-1.01-0.61c-4.29,2.03-8.61,4.02-12.91,6.03c-1.15,0.54-2.29,1.1-3.45,1.6c-0.63,0.27-0.85,0.68-0.84,1.35
		c0.03,1.99-0.01,3.99,0.01,5.98c0.03,3.54-2.71,6.57-6.6,6.04c-0.57-0.08-0.82,0.12-0.82,0.69c0,0.76,0,1.52-0.01,2.28
		c-0.04,3.25-1.36,5.14-4.39,6.27c-0.94,0-1.89,0-2.83,0c-3-1.11-4.39-3.24-4.23-6.45c0.09-1.88,0.02-3.77,0.02-5.66
		c0-1.35,0-1.35-1.21-0.79c-6.34,2.95-12.7,5.88-19.02,8.87c-2.82,1.33-5.71,2.51-8.43,4.03c-0.94,0-2.25,0.37-2.73-0.1
		C-0.23,110.96,0.14,109.64,0.14,108.7z M80.37,35.16c-0.04-0.36-0.31-0.51-0.51-0.71c-4.82-5-10.43-8.88-16.78-11.66
		c-6.51-2.85-13.33-4.38-20.46-4.45c-1.19-0.01-1.08,1.05-1.3,1.7c-0.24,0.72,0.55,0.57,0.95,0.66
		c10.92,2.46,15.47,15.17,8.58,23.98c-4.72,6.04-13.32,7.47-19.82,3.24c-0.84-0.55-1.17-0.49-1.54,0.47
		c-1.04,2.67-2.14,5.31-3.29,7.94c-0.36,0.82-0.26,1.25,0.52,1.76c4.54,2.95,6.85,7.24,6.96,12.59c0.19,9.45-9.09,16.8-18.29,14.57
		c-0.81-0.2-1.18-0.03-1.47,0.73c-0.62,1.62-1.32,3.22-1.98,4.83c-0.22,0.53-0.66,1.17-0.52,1.61c0.23,0.72,1.09,0.19,1.64,0.39
		c0.07,0.02,0.14,0.03,0.21,0.05c1.21,0.26,1.85,1.02,1.78,2.09c-0.07,1.12-0.86,1.81-2.15,1.85c-0.83,0.03-1.67,0.04-2.5,0
		c-0.68-0.04-1.05,0.23-1.31,0.87c-0.96,2.39-1.96,4.76-2.94,7.14c-0.08,0.21-0.28,0.44,0.01,0.73c4.55-2.13,9.11-4.26,13.68-6.38
		c0.5-0.23,0.53-0.59,0.53-1.06c-0.01-1.23-0.13-2.47,0.14-3.69c0.21-0.94,1.06-1.59,1.97-1.55c0.97,0.04,1.77,0.81,1.85,1.8
		c0.04,0.58,0.02,1.16,0.02,1.74c0,0.36,0.1,0.61,0.51,0.42c1.29-0.6,2.58-1.21,4.02-1.9c-0.48-0.16-0.76-0.24-1.03-0.34
		c-3.01-1.13-4.48-4.51-3.27-7.51c1.16-2.89,4.52-4.29,7.41-3.09c2.99,1.24,4.39,4.67,2.98,7.6c-0.43,0.89-0.77,1.54,0.21,2.24
		c0.19,0.13,0.25,0.52,0.29,0.8c0.07,0.57,0.12,1.15,0.13,1.73c0.02,3.16-0.01,6.31,0.03,9.47c0.01,1.15,0.63,1.77,1.62,1.78
		c0.98,0.01,1.62-0.61,1.75-1.7c0.04-0.32,0.02-0.65,0.02-0.98c0-2.58,0-5.15,0-7.73c0-1.46,0.65-2.34,1.77-2.45
		c1.08-0.11,1.83,0.55,2.2,1.94c0.32,1.2,1.01,1.82,1.89,1.69c0.98-0.14,1.53-0.9,1.54-2.17c0.01-2.47-0.01-4.93,0.01-7.4
		c0.01-0.58-0.19-1.03-0.53-1.49c-2.56-3.44-3.62-7.26-2.98-11.56c0.97-6.53,6.83-12.07,13.44-12.58c8.96-0.7,16.3,6.07,16.32,15.05
		c0,2.14,0,4.28,0,6.42c0,0.33-0.01,0.66,0.04,0.98c0.16,1,0.87,1.63,1.76,1.6c0.93-0.04,1.57-0.65,1.58-1.73
		c0.04-3.23,0.02-6.46,0.04-9.69c0-0.61,0.04-1.24,0.16-1.84c0.18-0.86,0.74-1.39,1.65-1.47c1.23-0.11,2.1,0.62,2.15,1.89
		c0.05,1.2-0.03,2.4,0.06,3.59c0.09,1.16,0.72,1.74,1.69,1.76c0.99,0.02,1.57-0.52,1.77-1.69c0.05-0.32,0.05-0.65,0.05-0.98
		c0-1.85,0.1-3.71-0.03-5.55c-0.11-1.6,0.57-2.47,1.98-3.08c2.66-1.15,5.27-2.42,7.92-3.61c0.62-0.28,0.87-0.63,0.76-1.34
		c-0.53-3.22-1.26-6.4-2.34-9.48c-0.4-1.14-0.79-2.29-1.44-3.46c-0.54,0.99-0.95,1.88-1.48,2.69c-0.55,0.84-1.52,1.06-2.39,0.64
		c-0.84-0.41-1.36-1.16-1.09-2.03c0.55-1.76,1.29-3.49,2.54-4.87c0.45-0.5,0.44-0.76,0.16-1.26c-1.46-2.6-3.11-5.07-4.98-7.39
		c-0.33-0.41-0.58-0.91-1.14-1.22c-0.23,0.81-0.48,1.54-1.23,1.92c-1.23,0.62-2.45,1.27-3.71,1.83c-1.08,0.48-2.13,0.1-2.61-0.83
		c-0.52-1.01-0.24-2.1,0.88-2.68C77.04,36.49,78.54,35.45,80.37,35.16z M107.62,56.28c0.07-0.61-0.11-1.43-0.2-2.25
		c-0.1-0.86-0.14-1.73-0.28-2.59c-2.28-14.17-8.98-25.81-20.08-34.89C75.89,7.4,62.75,4.26,48.66,4.05
		c-0.55-0.01-0.87,0.19-1.08,0.7c-1.19,2.92-2.4,5.83-3.62,8.74c-0.31,0.74,0,0.88,0.66,0.88c1.49,0,2.96,0.22,4.43,0.41
		c10.42,1.36,19.74,5.33,27.99,11.8c6.36,4.99,11.43,11.08,15.21,18.24c2.8,5.3,4.77,10.87,5.74,16.79c0.13,0.81,0.38,1,1.19,0.6
		c2.24-1.11,4.52-2.13,6.8-3.17C108.01,58.13,107.61,58.37,107.62,56.28z M50.14,35.42c0.1-0.75-0.1-1.46-0.23-2.17
		c-0.82-4.42-4.56-8.07-8.94-8.7c-0.85-0.12-1.57-0.15-2,0.93c-2.26,5.62-4.59,11.21-6.93,16.79c-0.34,0.8-0.27,1.3,0.47,1.83
		c3.59,2.54,7.43,3.07,11.39,1.15C47.95,43.29,49.95,39.89,50.14,35.42z M57.79,67.16c-1.01-0.08-2.11,0.12-3.2,0.44
		c-7.15,2.08-10.17,11.02-5.74,16.92c0.47,0.63,0.84,0.77,1.59,0.42c5.7-2.69,11.42-5.35,17.16-7.96c0.79-0.36,0.97-0.75,0.78-1.57
		C67.23,70.71,62.72,67.05,57.79,67.16z M29.68,70.72c0-3.55-1.83-7.1-4.54-8.96c-0.71-0.49-1.02-0.38-1.34,0.4
		c-2.48,6.07-4.98,12.13-7.51,18.18c-0.3,0.73-0.22,0.97,0.6,1.14C23.28,82.8,29.67,77.44,29.68,70.72z M29.87,90.91
		c0.88-0.01,1.67-0.8,1.67-1.68c0-0.93-0.72-1.62-1.69-1.61c-0.97,0-1.67,0.69-1.66,1.63C28.2,90.15,28.98,90.92,29.87,90.91z"/>
	<path d="M55.79,44.64c0-3.18,2.47-5.66,5.63-5.67c3.14-0.01,5.68,2.51,5.7,5.64c0.02,3.14-2.63,5.81-5.73,5.77
		C58.29,50.35,55.79,47.79,55.79,44.64z M63.14,44.64c-0.02-0.95-0.82-1.66-1.79-1.62c-0.93,0.04-1.57,0.76-1.52,1.72
		c0.04,0.93,0.78,1.64,1.68,1.61C62.35,46.33,63.16,45.48,63.14,44.64z"/>
	<path d="M87.51,59.52c0,3.18-2.47,5.69-5.61,5.7c-3.18,0.01-5.7-2.55-5.68-5.76c0.02-3.12,2.6-5.69,5.69-5.66
		C85.03,53.82,87.51,56.35,87.51,59.52z M83.49,59.5c0-0.95-0.7-1.66-1.61-1.67c-0.87,0-1.68,0.77-1.7,1.64
		c-0.03,0.91,0.79,1.72,1.72,1.7C82.84,61.16,83.5,60.47,83.49,59.5z"/>
	<path d="M35.33,61.38c0-3.17,2.47-5.65,5.64-5.65c3.16,0,5.69,2.46,5.75,5.59c0.06,3.09-2.61,5.76-5.75,5.75
		C37.84,67.05,35.33,64.53,35.33,61.38z M42.7,61.4c0.02-0.89-0.71-1.62-1.65-1.65c-0.97-0.03-1.66,0.61-1.68,1.56
		c-0.03,0.99,0.69,1.76,1.65,1.76C41.86,63.08,42.68,62.26,42.7,61.4z"/>
	<path d="M50.66,59.58c-1.21-0.01-1.87-0.39-2.15-1.18c-0.3-0.84-0.2-1.73,0.58-2.25c1.41-0.96,2.93-1.74,4.56-2.25
		c0.86-0.27,1.57,0.18,2.02,0.92c0.43,0.71,0.48,1.57-0.11,2.13C54.08,58.33,52.2,58.98,50.66,59.58z"/>
	<path d="M38.91,83.73c-0.1-0.03-0.4-0.05-0.66-0.17c-1.24-0.6-2.49-1.17-3.69-1.84c-1.06-0.59-1.36-1.73-0.85-2.69
		c0.49-0.93,1.55-1.3,2.61-0.82c1.31,0.6,2.61,1.25,3.86,1.96c0.8,0.45,1.12,1.24,0.84,2.15C40.74,83.24,40.1,83.76,38.91,83.73z"/>
	<path d="M63.36,28.12c-0.03,0.13-0.05,0.47-0.19,0.75c-0.58,1.21-1.15,2.42-1.8,3.59c-0.62,1.12-1.64,1.46-2.64,0.96
		c-1-0.49-1.4-1.54-0.9-2.66c0.57-1.29,1.2-2.55,1.92-3.77c0.47-0.8,1.23-1.22,2.22-0.91C62.86,26.37,63.35,26.97,63.36,28.12z"/>
	<path d="M80.09,66.97c0.02,0.82-0.42,1.39-1.09,1.75c-1.18,0.63-2.37,1.26-3.6,1.81c-1.12,0.5-2.24,0.11-2.72-0.86
		c-0.48-0.96-0.11-2.09,0.96-2.67c1.18-0.64,2.37-1.26,3.6-1.79C78.71,64.58,80.11,65.49,80.09,66.97z"/>
	<path d="M67.16,52.01c0.17,0.04,0.47,0.07,0.73,0.19c1.24,0.6,2.5,1.17,3.7,1.85c1.06,0.59,1.36,1.63,0.89,2.59
		c-0.48,0.97-1.49,1.4-2.56,0.93c-1.33-0.58-2.63-1.23-3.88-1.95c-0.83-0.48-1.16-1.29-0.86-2.25
		C65.45,52.48,66.1,52.03,67.16,52.01z"/>
</g>
</svg>
